<svg xmlns="http://www.w3.org/2000/svg" xmlns:xlink="http://www.w3.org/1999/xlink" data-v-0dd9719b="" version="1.0" preserveAspectRatio="xMidYMid meet" color-interpolation-filters="sRGB" viewBox="0 0 167.77 60.49">   <g data-v-0dd9719b="" fill="#333" class="icon-text-wrapper icon-svg-group iconsvg"><g class="iconsvg-imagesvg" transform="matrix(1,0,0,1,0,5.448762893676758)" opacity="1"><g><rect fill="#333" fill-opacity="0" stroke-width="2" x="0" y="0" width="60" height="49.59497437592991" class="image-rect"/> <svg x="0" y="0" width="60" height="49.59497437592991" filtersec="colorsb9425300696" class="image-svg-svg primary" style="overflow: visible;"><svg xmlns="http://www.w3.org/2000/svg" viewBox="0 0 120.97999572753906 100"><title>STARTEST</title><path fill="#3d3d6b" d="M87.02 22.31l-47 77.69h27.81l33.12-54.64-13.93-23.05z"/><path fill="#17b0dd" d="M94.42 56.09L60.49 0 0 100h27.81l32.68-54.03 20.03 33.1 13.9-22.98zM99.8 64.98L85.89 87.96 93.17 100h27.81L99.8 64.98z"/></svg></svg> <!----></g></g> <g transform="translate(67,0)"><g data-gra="path-name" fill-rule="" class="tp-name iconsvg-namesvg" transform="matrix(1,0,0,1,0,0)" opacity="1"><g transform="scale(1)"><g><path d="M23.2-12.57L6.23-12.57 6.23-8.81 23.2-8.81 23.2-12.57ZM33.73-8.81L50.7-8.81 50.7-12.57 33.73-12.57 33.73-8.81ZM32.01-3.01L32.01-8.81 32.12-8.81 32.12-12.57 32.01-12.57 32.01-18.48 50.81-18.48 50.81-22.13 32.01-22.13 32.01-25.78 24.92-25.78 24.92-22.13 13-22.13 13-24.6 5.91-24.6 5.91-20.3 9.45-18.48 24.92-18.48 24.92-12.57 24.81-12.57 24.81-8.81 24.92-8.81 24.92-3.01 5.69-3.01 5.69 0.75 51.24 0.75 51.24-3.01 32.01-3.01ZM6.77-42.97L6.77-28.36 10.31-26.53 46.3-26.53 49.84-28.36 49.84-42.97 46.3-44.79 15.58-44.79 15.58-41.04 42.75-41.04 42.75-37.49 15.58-37.49 15.58-33.73 42.75-33.73 42.75-30.19 13.86-30.19 13.86-33.73 13.96-33.73 13.96-37.49 13.86-37.49 13.86-41.04 13.96-41.04 13.96-44.79 10.31-44.79 6.77-42.97ZM73.91-44.15L60.91-44.15 60.91-40.71 70.58-40.71 70.58-23.96 77.24-23.96 77.24-42.43 73.91-44.15ZM60.91-12.25L60.91-8.59 71.22-8.59 71.22-12.25 60.91-12.25ZM103.55-43.18L100.12-44.79 86.9-44.79 83.47-43.18 82.93-41.04 90.02-41.04 90.13-41.14 97-41.14 99.47-30.51 106.46-30.94 103.55-43.18ZM90.02-41.14L82.93-41.14 80.57-30.94 87.55-30.51 90.02-41.14ZM98.4-5.05L104.74-5.05 105.81-23.63 99.58-23.63 98.4-5.05ZM90.66-5.05L97-5.05 96.36-23.63 90.13-23.63 90.66-5.05ZM82.07-5.05L88.41-5.05 87.55-23.63 81.21-23.63 82.07-5.05ZM81.64-29.11L81.64-25.35 105.49-25.35 105.49-29.11 81.64-29.11ZM80.24-3.22L80.24 0.43 106.24 0.43 106.24-3.22 80.24-3.22ZM79.38-0.97L79.38-20.52 77.24-21.59 77.24-22.34 70.58-22.34 70.58-22.24 68-22.24 68-37.81 61.34-37.81 61.34-20.52 64.67-18.69 72.72-18.69 72.72-2.79 64.35-2.79 64.35 0.75 76.05 0.75 79.38-0.97Z" transform="translate(-5.690000057220459, 44.790000915527344)"/></g> <!----> <!----> <!----> <!----> <!----> <!----> <!----></g></g> <g data-gra="path-slogan" fill-rule="" class="tp-slogan iconsvg-slogansvg" fill="#333" transform="matrix(1,0,0,1,5,51.540000915527344)" opacity="1"><rect x="0" height="1" y="3.9750003814697266" width="11.584173202514648"/> <rect height="1" y="3.9750003814697266" width="11.584173202514648" x="79.18582344055176"/> <g transform="translate(14.584173202514648,0)"><g transform="scale(1)"><path d="M7.17-6.09L7.17-6.09L6.09-6.09Q6-7.73 3.94-7.83L3.94-7.83Q2.02-7.78 2.02-6.33L2.02-6.33Q2.02-5.39 3.05-5.25L3.05-5.25L5.48-4.69Q7.41-4.22 7.41-2.34L7.41-2.34Q7.36 0.05 4.03 0.14L4.03 0.14Q2.20 0.14 1.45-0.61L1.45-0.61Q0.52-1.31 0.56-2.77L0.56-2.77L1.69-2.77Q1.73-0.80 4.03-0.75L4.03-0.75Q6.28-0.80 6.33-2.20L6.33-2.20Q6.52-3.38 4.45-3.75L4.45-3.75L2.67-4.13Q0.84-4.64 0.84-6.19L0.84-6.19Q0.98-8.72 3.84-8.81L3.84-8.81Q7.08-8.81 7.17-6.09ZM11.06-7.59L8.16-7.59L8.16-8.58L15.09-8.58L15.09-7.59L12.19-7.59L12.19 0L11.06 0L11.06-7.59ZM21.80 0L20.95-2.48L17.48-2.48L16.59 0L15.42 0L18.66-8.58L19.97-8.58L23.06 0L21.80 0ZM19.22-7.31L17.86-3.52L20.53-3.52L19.27-7.31L19.22-7.31ZM28.22-3.70L25.41-3.70L25.41 0L24.23 0L24.23-8.58L28.22-8.58Q31.08-8.58 31.08-6.28L31.08-6.28Q31.08-4.88 29.86-4.22L29.86-4.22Q30.89-3.94 30.89-2.58L30.89-2.58L30.98-1.03Q30.94-0.38 31.41-0.19L31.41-0.19L31.41 0L29.95 0Q29.81-0.61 29.77-2.16L29.77-2.16Q29.81-3.70 28.22-3.70L28.22-3.70ZM28.31-7.64L25.41-7.64L25.41-4.69L28.13-4.69Q29.86-4.69 29.86-6.19L29.86-6.19Q29.86-7.64 28.31-7.64L28.31-7.64ZM34.92-7.59L32.02-7.59L32.02-8.58L38.95-8.58L38.95-7.59L36.05-7.59L36.05 0L34.92 0L34.92-7.59ZM41.30-1.03L46.45-1.03L46.45 0L40.13 0L40.13-8.58L46.36-8.58L46.36-7.59L41.30-7.59L41.30-4.92L45.98-4.92L45.98-3.89L41.30-3.89L41.30-1.03ZM54.23-6.09L54.23-6.09L53.16-6.09Q53.06-7.73 51-7.83L51-7.83Q49.08-7.78 49.08-6.33L49.08-6.33Q49.08-5.39 50.11-5.25L50.11-5.25L52.55-4.69Q54.47-4.22 54.47-2.34L54.47-2.34Q54.42 0.05 51.09 0.14L51.09 0.14Q49.27 0.14 48.52-0.61L48.52-0.61Q47.58-1.31 47.63-2.77L47.63-2.77L48.75-2.77Q48.80-0.80 51.09-0.75L51.09-0.75Q53.34-0.80 53.39-2.20L53.39-2.20Q53.58-3.38 51.52-3.75L51.52-3.75L49.73-4.13Q47.91-4.64 47.91-6.19L47.91-6.19Q48.05-8.72 50.91-8.81L50.91-8.81Q54.14-8.81 54.23-6.09ZM58.13-7.59L55.22-7.59L55.22-8.58L62.16-8.58L62.16-7.59L59.25-7.59L59.25 0L58.13 0L58.13-7.59Z" transform="translate(-0.5602678571428572, 8.8125)"/></g></g></g></g></g><defs v-gra="od"/></svg>
